<?xml version="1.0" encoding="UTF-8"?>
<svg width="64px" height="64px" viewBox="0 0 64 64" version="1.1" xmlns="http://www.w3.org/2000/svg" xmlns:xlink="http://www.w3.org/1999/xlink">
    <!-- Generator: Sketch 53.2 (72643) - https://sketchapp.com -->
    <title>64</title>
    <desc>Created with Sketch.</desc>
    <g id="64" stroke="none" stroke-width="1" fill="none" fill-rule="evenodd">
        <g id="small/Logo">
            <g id="Group-4">
                <g id="Group">
                    <path d="M31.9992921,0 C21.9972965,0 9.93238927,2.29475817 9.81318912e-06,7.34568336 C9.81318912e-06,18.2543166 -0.137091405,45.4310244 31.9992921,64 C64.136386,45.4310244 63.9999951,18.2543166 63.9999951,7.34568336 C54.0669053,2.29475817 42.0019981,0 31.9992921,0 L31.9992921,0 Z" id="Path" fill="#68BC71"></path>
                    <path d="M32,3.8254413e-09 L32,63.999591 C-0.137091405,45.4310244 9.81318922e-06,18.2543166 9.81318922e-06,7.34568336 C9.93238927,2.29475817 21.9972965,0 31.9992921,0 Z" id="Combined-Shape" fill="#67B279"></path>
                </g>
                <path d="M31.7176931,41.1428571 L50.2857143,16.5403083 C48.9250874,15.4681559 47.7316233,16.2248589 47.0746349,16.8106935 L47.0506619,16.8125711 L31.568672,32.6457521 L25.7354703,25.7446708 C22.9526644,22.583918 19.1694738,24.9948527 18.2857143,25.6320103 L31.7176931,41.1428571" id="Fill-11" fill="#FFFFFF"></path>
            </g>
        </g>
    </g>
</svg>